<?xml version="1.0" standalone="no"?>
<!DOCTYPE svg PUBLIC "-//W3C//DTD SVG 20010904//EN"
 "http://www.w3.org/TR/2001/REC-SVG-20010904/DTD/svg10.dtd">
<svg version="1.0" xmlns="http://www.w3.org/2000/svg"
 width="512.000000pt" height="512.000000pt" viewBox="0 0 512.000000 512.000000"
 preserveAspectRatio="xMidYMid meet">
<metadata>
Created by potrace 1.14, written by Peter Selinger 2001-2017
</metadata>
<g transform="translate(0.000000,512.000000) scale(0.100000,-0.100000)"
fill="#000000" stroke="none">
<path d="M2013 5105 c1 -5 -5 -8 -13 -7 -8 2 -12 0 -8 -3 10 -10 -11 -47 -23
-40 -5 4 -9 0 -9 -7 0 -8 -5 -6 -11 5 -14 24 -33 23 -20 -1 7 -14 6 -19 -4
-19 -8 0 -12 4 -10 8 3 4 -2 9 -10 13 -8 3 -15 13 -15 23 -1 17 -1 17 -11 0
-6 -9 -14 -15 -19 -12 -5 3 -16 -5 -25 -17 -16 -23 -16 -23 -10 10 5 28 3 31
-8 20 -8 -7 -12 -22 -10 -33 3 -18 2 -18 -8 3 -11 21 -30 31 -28 15 3 -20 -2
-30 -17 -30 -14 0 -14 2 2 14 10 7 15 13 11 13 -4 0 0 12 9 28 11 18 11 21 2
10 -8 -10 -19 -14 -23 -10 -5 4 -5 2 -1 -5 3 -6 -2 -18 -12 -25 -11 -7 -20
-17 -21 -23 -1 -5 -8 -9 -16 -7 -15 3 -28 -25 -15 -33 7 -4 7 -13 0 -24 -5
-10 -6 -22 -2 -26 4 -3 0 -5 -8 -3 -8 2 -14 -2 -13 -8 1 -8 -6 -10 -20 -7 -21
5 -21 5 -3 -9 13 -11 16 -17 7 -22 -6 -4 -9 -11 -6 -16 3 -4 -1 -10 -9 -13
-18 -7 -14 22 5 33 10 7 9 9 -7 8 -16 -2 -20 -8 -18 -32 2 -41 1 -40 22 -25
15 13 16 12 3 -4 -7 -9 -20 -16 -27 -15 -12 3 -14 0 -14 -21 0 -5 12 -7 27 -5
15 3 25 2 21 -1 -11 -11 -43 -13 -56 -2 -9 7 -11 5 -6 -8 6 -14 4 -16 -7 -10
-8 4 -11 4 -6 0 4 -5 0 -17 -10 -27 -15 -17 -15 -19 0 -31 13 -9 14 -16 6 -27
-10 -13 -10 -13 -6 1 3 9 -1 16 -8 16 -10 0 -11 -7 -4 -24 5 -12 6 -23 3 -23
-4 0 -1 -6 5 -14 8 -10 9 -16 1 -21 -6 -4 -9 -1 -8 6 2 7 -1 13 -7 14 -5 0
-16 4 -23 8 -6 5 -3 -9 9 -30 11 -21 14 -30 6 -20 -17 20 -33 22 -43 5 -5 -8
-2 -9 10 -5 10 4 15 3 11 -3 -3 -6 0 -10 7 -10 10 0 10 -2 -1 -9 -8 -5 -10
-14 -5 -22 6 -12 5 -12 -9 0 -20 16 -23 1 -4 -18 10 -11 8 -11 -10 -2 -12 6
-24 16 -26 23 -4 9 -6 10 -6 1 -1 -6 3 -14 9 -18 5 -3 7 -12 3 -20 -3 -9 1
-23 8 -33 10 -13 8 -12 -11 3 l-24 20 17 -27 c13 -21 14 -26 2 -24 -8 1 -18 6
-22 11 -4 4 -2 5 6 0 10 -5 12 -4 7 4 -4 6 -12 9 -17 5 -5 -3 -7 -10 -4 -15 4
-5 -1 -9 -10 -9 -9 0 -14 -4 -11 -9 3 -5 -1 -14 -9 -21 -12 -10 -13 -16 -3
-28 11 -13 9 -14 -12 -9 -17 5 -15 2 8 -8 40 -19 41 -26 2 -15 -19 5 -30 5
-30 -1 0 -6 -5 -7 -12 -3 -7 4 -8 3 -4 -4 4 -6 12 -9 20 -6 7 3 13 -2 13 -10
0 -8 -5 -12 -10 -9 -7 4 -8 -1 -3 -12 5 -15 4 -16 -8 -6 -12 10 -14 9 -9 -8 3
-12 10 -18 17 -14 6 3 8 3 4 -2 -4 -4 -3 -17 3 -29 8 -15 4 -14 -14 7 l-25 28
2 -25 c0 -13 5 -22 10 -18 5 3 6 0 2 -6 -4 -7 -2 -12 3 -12 6 0 11 -5 11 -11
0 -8 -5 -7 -15 1 -12 10 -19 10 -27 2 -7 -7 -8 -12 -4 -12 5 0 2 -8 -5 -17
-10 -11 -10 -14 -1 -9 7 4 12 2 12 -5 0 -8 5 -7 18 2 15 13 16 12 4 -3 -7 -9
-22 -15 -32 -13 -11 2 -22 0 -25 -5 -3 -5 4 -7 15 -5 27 5 26 -10 -2 -29 -12
-9 -17 -16 -10 -16 8 0 10 -5 6 -12 -4 -6 -3 -8 2 -5 6 3 16 1 24 -5 12 -8 12
-9 -2 -4 -10 3 -18 2 -18 -2 0 -5 -9 -18 -20 -30 -12 -12 -17 -22 -13 -22 5 0
14 -10 22 -22 13 -21 13 -22 -2 -10 -17 14 -42 8 -32 -8 3 -5 1 -11 -4 -15 -6
-3 -7 -13 -4 -22 4 -9 -1 -21 -12 -29 -23 -17 -12 -18 18 -2 18 9 20 9 12 -3
-12 -17 -13 -39 -1 -58 7 -10 6 -12 -5 -6 -18 12 -69 14 -63 3 3 -5 9 -6 13
-3 5 2 16 -1 26 -8 15 -12 16 -15 2 -29 -8 -8 -17 -26 -19 -39 -2 -17 -8 -23
-23 -21 -16 2 -17 1 -5 -7 8 -5 17 -8 21 -5 4 2 9 -2 12 -10 4 -10 0 -12 -14
-9 -15 4 -18 2 -12 -12 5 -14 3 -16 -7 -10 -8 5 -11 4 -6 -3 3 -5 3 -12 -1
-15 -5 -2 -3 -3 3 -1 6 1 11 -11 11 -27 0 -30 -10 -38 -23 -17 -4 7 -3 8 4 4
8 -5 10 -2 6 9 -9 22 -15 12 -18 -25 -1 -19 2 -29 9 -26 6 2 11 -5 11 -15 0
-11 -4 -19 -8 -19 -4 0 -8 -3 -7 -7 2 -16 -14 -53 -23 -53 -5 0 -4 9 2 20 7
14 7 20 0 20 -5 0 -10 -7 -10 -16 0 -9 -5 -12 -12 -8 -10 6 -10 4 0 -8 10 -13
10 -17 0 -22 -7 -3 -1 -3 15 -1 15 2 25 0 22 -6 -4 -5 -16 -9 -28 -9 -18 0
-19 -2 -7 -10 13 -9 7 -14 -12 -11 -4 0 -5 -6 -1 -15 4 -11 9 -12 16 -5 6 6
16 11 21 11 6 0 0 -7 -12 -16 -13 -9 -29 -14 -36 -11 -9 4 -12 -3 -10 -20 2
-18 -1 -23 -12 -19 -9 3 -12 1 -9 -5 4 -5 16 -7 28 -4 12 2 16 2 9 -1 -6 -3
-9 -11 -5 -17 12 -20 12 -38 0 -30 -21 13 -36 11 -30 -3 3 -8 9 -11 14 -8 5 3
9 1 9 -4 0 -17 -13 -22 -29 -9 -14 11 -14 10 -2 -6 8 -10 20 -16 28 -13 10 4
11 1 4 -13 -6 -10 -7 -22 -3 -26 4 -5 1 -5 -7 0 -10 6 -11 2 -6 -15 5 -17 4
-21 -5 -15 -9 6 -11 4 -5 -5 6 -10 3 -12 -11 -7 -18 7 -18 6 -1 -7 12 -9 17
-25 15 -48 -2 -38 7 -58 27 -58 8 0 17 -4 20 -10 4 -6 -4 -6 -22 1 -15 5 -31
16 -35 22 -6 9 -8 9 -8 0 0 -7 9 -18 19 -25 20 -12 17 -43 -3 -31 -7 4 -7 2 1
-7 8 -9 9 -19 3 -30 -7 -14 -6 -17 8 -16 9 0 16 -5 14 -11 -1 -7 2 -13 8 -13
5 0 10 -5 10 -12 0 -9 -3 -9 -12 0 -16 16 -25 15 -25 -3 0 -8 3 -13 6 -11 3 2
13 -3 21 -12 13 -14 12 -15 -2 -10 -18 7 -33 -17 -17 -27 5 -4 6 -11 3 -17 -4
-6 -2 -8 4 -4 6 3 14 2 17 -4 4 -6 1 -9 -6 -8 -6 2 -14 -3 -17 -11 -3 -9 0
-11 7 -7 7 5 10 2 9 -6 -2 -7 3 -12 11 -10 11 2 12 0 3 -11 -7 -8 -8 -18 -4
-22 4 -5 1 -5 -5 -1 -9 5 -13 0 -13 -13 0 -12 -5 -21 -11 -21 -5 0 -7 5 -3 12
4 7 3 8 -5 4 -9 -6 -9 -11 0 -22 9 -11 8 -14 -2 -14 -10 -1 -8 -4 4 -11 25
-15 22 -32 -4 -18 -13 6 -19 7 -15 1 3 -6 0 -13 -6 -16 -9 -4 -8 -5 2 -5 30 2
41 -1 35 -11 -3 -5 -13 -6 -23 -3 -9 3 -14 3 -10 -1 6 -7 27 -13 53 -15 6 -1
3 -6 -5 -11 -13 -9 -13 -11 0 -21 13 -9 12 -10 -2 -5 -22 7 -23 -4 -3 -30 17
-23 19 -34 4 -34 -5 0 -8 4 -5 9 3 5 -2 15 -12 22 -14 11 -15 11 -5 -1 8 -9 9
-19 3 -31 -7 -12 -6 -20 2 -25 7 -4 8 -3 4 4 -4 7 -1 12 8 12 19 0 20 -11 4
-30 -11 -12 -10 -12 5 0 16 12 18 11 13 -14 -3 -15 -1 -24 5 -21 5 4 7 10 5
14 -3 4 2 8 10 8 10 0 11 -4 4 -11 -14 -14 -12 -26 5 -26 19 0 19 -14 0 -30
-8 -7 -15 -17 -15 -23 0 -5 9 2 21 17 12 15 25 23 32 19 7 -4 18 -8 25 -9 24
-4 39 -24 36 -50 -2 -21 0 -23 12 -13 13 10 18 6 15 -13 -1 -9 27 -4 36 7 4 4
2 5 -6 0 -9 -5 -12 -4 -7 3 11 18 29 14 22 -4 -7 -17 17 -58 27 -47 10 10 8
25 -2 18 -5 -3 -12 -1 -15 4 -11 16 8 20 28 5 16 -11 17 -16 6 -29 -11 -13 -9
-15 11 -13 16 2 24 -2 24 -12 1 -8 8 -28 17 -44 14 -27 16 -28 22 -10 7 22 33
28 33 8 0 -7 -6 -10 -13 -7 -8 3 -11 -2 -10 -14 2 -10 -2 -21 -8 -25 -8 -6 -8
-8 1 -8 6 0 18 7 26 15 16 16 15 20 19 -67 1 -29 4 -35 14 -27 8 7 14 7 19 -1
4 -6 1 -9 -6 -8 -6 2 -14 -3 -17 -11 -3 -10 0 -11 9 -5 11 6 12 5 2 -8 -7 -8
-10 -18 -6 -21 3 -4 0 -14 -8 -24 -9 -11 -10 -14 -2 -9 7 4 22 9 34 11 17 3
19 2 9 -10 -7 -8 -16 -13 -20 -10 -5 3 -11 1 -14 -4 -4 -5 5 -8 19 -6 14 1 28
-2 32 -8 3 -6 1 -7 -5 -3 -8 5 -12 -1 -12 -17 0 -14 7 -28 18 -32 14 -5 15 -4
5 6 -17 17 -16 26 3 33 14 5 15 4 5 -8 -8 -10 -9 -16 -1 -21 5 -3 10 -17 10
-31 0 -13 5 -24 11 -24 8 0 8 -4 2 -12 -14 -18 -12 -45 3 -45 7 0 11 4 8 9 -3
4 0 8 6 8 7 0 10 -6 7 -14 -3 -7 0 -19 6 -26 10 -10 7 -10 -10 -1 -15 7 -24 8
-28 1 -4 -6 -1 -9 7 -8 8 2 12 -4 10 -16 -3 -17 -1 -18 11 -7 12 9 17 9 23 0
4 -8 3 -9 -4 -5 -18 11 -15 -40 4 -58 9 -9 11 -16 4 -16 -6 0 -8 -5 -4 -12 4
-7 3 -8 -4 -4 -8 5 -12 -3 -12 -24 0 -20 -4 -29 -11 -24 -7 4 -7 -1 1 -16 11
-20 10 -22 -4 -17 -10 4 -15 3 -11 -3 4 -6 14 -9 22 -8 9 2 18 -4 20 -12 4
-12 3 -12 -5 -2 -7 11 -10 9 -14 -6 -3 -11 -1 -25 5 -31 8 -8 6 -11 -7 -11 -9
0 -15 -4 -11 -9 3 -5 1 -12 -5 -16 -5 -3 -10 -12 -10 -18 0 -8 3 -8 8 -2 4 6
16 11 27 13 15 2 16 0 7 -6 -17 -12 -17 -22 0 -33 11 -7 11 -9 -1 -9 -7 0 -11
-6 -8 -14 4 -10 1 -13 -7 -10 -7 3 -13 -2 -13 -10 0 -8 5 -14 11 -13 12 2 12
0 2 -52 -5 -31 -5 -32 12 -20 15 13 16 12 3 -4 -7 -9 -10 -17 -6 -17 4 0 3 -6
-2 -12 -6 -7 -9 -21 -8 -30 2 -10 -1 -20 -6 -24 -5 -3 -4 -14 2 -26 6 -12 7
-18 1 -14 -5 3 -18 -6 -27 -20 -9 -15 -12 -24 -7 -20 6 3 13 2 17 -4 3 -5 -1
-10 -11 -10 -13 0 -14 -3 -5 -13 6 -8 8 -17 4 -20 -3 -4 -1 -7 5 -7 7 0 12 -5
12 -11 0 -8 -5 -8 -15 1 -8 7 -12 17 -8 23 3 6 1 7 -5 3 -6 -4 -8 -14 -5 -23
5 -12 3 -14 -7 -8 -8 5 -11 4 -6 -3 3 -6 2 -13 -3 -16 -10 -7 -8 -39 4 -71 8
-20 8 -20 -11 0 -10 12 -15 15 -10 8 5 -7 6 -13 2 -13 -3 0 -1 -11 4 -25 6
-14 6 -25 0 -25 -4 0 -10 8 -12 18 -3 12 -6 9 -9 -10 -4 -19 -2 -25 8 -21 9 4
11 0 7 -11 -3 -9 -11 -13 -18 -9 -6 3 0 -7 14 -23 16 -18 18 -23 6 -14 -18 14
-19 13 -13 -3 4 -11 3 -16 -3 -12 -5 3 -18 1 -27 -4 -11 -6 -13 -11 -5 -11 7
0 10 -5 6 -12 -4 -7 -3 -8 5 -4 6 4 8 13 4 19 -4 7 0 6 10 -2 20 -16 22 -22 5
-18 -7 1 -13 -10 -13 -28 -1 -22 -6 -29 -17 -27 -9 1 -20 -3 -24 -9 -4 -7 -3
-9 4 -5 5 3 12 0 15 -6 5 -18 -3 -48 -15 -48 -5 0 -4 8 2 19 7 15 7 19 -5 17
-8 -1 -18 -6 -22 -11 -4 -4 -2 -5 5 -1 14 8 17 -10 2 -19 -5 -3 -10 -12 -10
-18 0 -8 4 -7 9 2 7 11 10 9 13 -10 2 -13 9 -23 16 -21 8 1 11 -2 7 -8 -3 -6
-10 -8 -15 -5 -10 6 -23 -12 -27 -35 -1 -8 -9 -19 -17 -26 -13 -9 -13 -13 2
-29 15 -17 15 -17 0 -6 -11 8 -18 9 -23 1 -3 -5 0 -10 7 -10 9 0 9 -3 -2 -10
-8 -5 -11 -10 -6 -10 5 0 3 -7 -4 -15 -7 -9 -19 -14 -26 -11 -17 6 -39 -20
-24 -29 10 -6 14 1 11 18 -1 5 3 6 8 3 7 -5 8 -20 2 -44 -1 -1 -11 3 -23 9
-21 11 -22 11 -10 -4 8 -9 12 -22 9 -29 -4 -8 -6 -7 -6 5 -1 9 -6 17 -12 17
-7 0 -9 -9 -6 -21 3 -12 3 -18 0 -15 -4 3 -13 0 -21 -7 -13 -10 -14 -9 -4 10
15 27 15 45 1 20 -6 -9 -14 -15 -20 -12 -12 8 2 -28 15 -37 7 -5 7 -8 1 -8
-15 0 -31 13 -38 30 -5 11 -6 9 -6 -5 2 -37 -1 -55 -8 -54 -20 3 -24 -2 -13
-16 10 -12 10 -18 0 -30 -7 -8 -9 -22 -6 -31 5 -12 2 -15 -11 -10 -14 6 -15 4
-6 -5 7 -7 19 -9 30 -4 12 5 14 9 6 12 -7 3 -13 11 -13 18 0 17 16 28 18 12 0
-7 3 -25 6 -42 3 -16 3 -24 0 -17 -3 6 -10 9 -15 6 -6 -4 -6 -11 1 -19 8 -10
8 -15 -1 -21 -8 -4 -9 -3 -5 4 11 18 -3 14 -22 -5 -16 -16 -16 -16 0 -11 10 4
23 -1 33 -12 10 -11 22 -17 28 -13 6 4 7 1 2 -6 -5 -9 -11 -9 -17 -3 -6 6 -18
8 -27 5 -14 -4 -14 -3 -1 7 13 10 12 11 -3 6 -10 -3 -21 -6 -23 -6 -2 0 -4 -4
-4 -10 0 -5 3 -9 8 -9 28 5 52 -24 30 -37 -6 -4 -8 -3 -4 4 3 6 3 13 -2 16 -4
2 -8 -10 -8 -29 0 -24 4 -31 14 -27 10 3 11 7 2 12 -8 5 -9 10 -2 14 20 12 24
-15 5 -36 -18 -21 -18 -21 5 -9 18 9 22 9 20 -1 -2 -7 4 -12 12 -10 12 3 13 1
3 -9 -14 -14 -18 -33 -5 -25 4 2 14 1 22 -5 11 -6 12 -9 2 -9 -9 0 -10 -5 -3
-17 9 -16 31 -18 222 -19 174 -1 216 2 230 14 9 8 15 20 13 27 -3 6 3 18 13
26 16 13 17 12 5 -3 -10 -12 -10 -18 -1 -24 8 -4 9 -3 5 4 -4 7 -2 12 3 12 6
0 11 7 11 16 0 10 5 14 16 10 8 -3 12 -2 9 4 -3 6 0 10 7 10 10 0 9 3 -2 9 -8
6 -18 7 -24 4 -5 -3 -6 -1 -2 5 4 6 13 9 20 6 8 -3 17 0 21 5 3 6 11 9 16 5 5
-3 16 0 24 6 8 6 20 8 27 4 10 -6 11 -5 1 8 -7 8 -10 18 -6 22 4 3 8 14 9 22
1 9 -1 13 -4 9 -4 -4 -7 -12 -7 -17 0 -6 -7 -13 -15 -15 -10 -3 -11 -2 -4 4 6
4 10 16 8 26 -1 11 0 16 3 13 10 -10 33 15 26 28 -3 6 0 6 8 -2 18 -16 26 -15
33 4 5 14 4 15 -9 4 -10 -8 -15 -9 -15 -2 0 14 31 31 48 25 6 -3 12 0 12 7 0
6 -4 8 -10 5 -5 -3 -10 -1 -10 5 0 6 -5 8 -10 5 -6 -3 -10 -1 -10 5 0 6 11 8
24 6 18 -3 23 -1 19 10 -3 8 0 14 6 14 6 0 8 7 5 15 -4 8 -11 12 -18 8 -6 -4
-5 1 3 10 8 10 23 15 37 13 14 -3 22 -1 19 5 -4 5 -10 7 -13 5 -4 -2 -13 7
-19 21 -12 24 -12 25 6 9 14 -13 21 -14 27 -5 4 7 3 10 -3 6 -6 -4 -13 -1 -16
7 -8 20 4 28 19 15 10 -8 18 -7 30 5 8 9 20 14 25 10 5 -3 8 0 7 6 -4 17 33
22 52 7 13 -11 13 -10 0 7 -14 18 -13 19 4 13 18 -7 18 -7 1 20 -13 20 -14 25
-3 16 8 -7 18 -9 22 -5 4 4 6 1 4 -7 -2 -8 7 -17 22 -21 16 -4 24 -12 22 -23
-4 -23 5 -21 19 4 9 17 8 20 -2 14 -8 -5 -10 -4 -5 4 10 15 29 3 22 -15 -3 -7
-1 -16 5 -19 5 -4 7 -10 4 -15 -3 -5 0 -12 7 -16 7 -4 10 -4 6 1 -4 4 0 14 10
22 15 11 15 12 1 7 -10 -3 -20 -1 -24 5 -6 10 13 16 42 12 10 -1 10 5 3 26 -8
23 -8 25 3 12 10 -13 15 -14 24 -4 7 7 11 15 10 17 -1 2 3 -1 8 -7 6 -6 18 -9
29 -7 11 2 16 0 12 -7 -4 -6 0 -11 9 -11 9 0 13 -5 10 -10 -3 -6 -1 -10 5 -10
6 0 8 -5 5 -10 -5 -9 8 -12 32 -9 3 0 10 -6 15 -14 5 -10 16 -13 30 -9 14 3
19 2 14 -6 -6 -11 6 -16 26 -13 5 0 7 -5 5 -12 -1 -6 3 -11 9 -10 7 1 10 -6 7
-17 -3 -11 -9 -18 -12 -15 -4 2 -8 -2 -8 -8 0 -7 9 -14 20 -14 11 -1 23 -7 27
-14 6 -8 9 -8 13 2 5 12 7 11 16 -1 5 -8 7 -18 4 -24 -3 -5 -1 -6 5 -2 6 3 12
-2 14 -11 3 -15 5 -14 10 4 3 13 2 21 -4 20 -6 -1 -13 5 -15 13 -4 13 -3 13 6
0 10 -13 11 -13 11 0 0 13 2 13 9 0 6 -8 7 -18 5 -22 -3 -4 0 -8 7 -8 8 0 7
-5 -2 -17 -12 -16 -12 -17 2 -6 9 7 19 10 22 6 4 -3 14 0 24 8 11 9 14 10 9 2
-4 -8 -2 -13 6 -13 10 0 9 -3 -2 -11 -13 -9 -13 -10 0 -6 8 2 14 11 12 21 -2
9 2 16 8 16 6 0 9 -4 6 -9 -3 -4 3 -18 13 -30 16 -18 20 -19 25 -6 3 9 2 13
-3 10 -12 -7 -22 8 -13 21 4 5 18 -1 32 -16 14 -14 21 -22 16 -17 -14 11 -26
9 -26 -5 0 -6 3 -8 7 -5 3 4 15 -1 25 -10 15 -13 21 -14 31 -4 9 10 9 11 -3 8
-8 -2 -11 -2 -7 1 4 2 2 11 -5 20 -8 12 -5 11 10 -2 12 -11 21 -25 18 -32 -3
-9 1 -11 12 -7 15 6 15 5 3 -10 -12 -15 -12 -17 4 -10 14 5 17 3 13 -9 -5 -11
-1 -14 18 -10 13 2 24 8 24 13 0 5 -6 6 -14 3 -7 -3 -17 3 -20 13 -6 14 -5 15
5 6 10 -10 15 -9 26 5 12 15 12 15 7 0 -4 -11 2 -21 18 -29 22 -12 22 -11 8 6
-14 17 -14 18 10 5 14 -7 22 -9 18 -5 -5 5 6 16 22 26 17 11 30 24 30 31 0 6
-7 3 -16 -8 -15 -18 -15 -18 -5 3 8 16 17 21 37 17 24 -4 25 -3 10 11 -18 19
-21 29 -5 20 6 -4 13 2 16 14 3 12 8 21 12 21 3 0 12 4 19 9 11 6 8 16 -13 47
-15 21 -31 38 -36 37 -4 -2 -5 5 -2 14 5 12 3 14 -8 8 -8 -4 -11 -5 -7 0 4 4
2 15 -4 22 -14 18 -21 83 -9 83 5 0 8 -7 7 -16 0 -9 5 -18 12 -20 7 -1 8 0 2
3 -5 2 -10 9 -10 14 0 6 6 7 13 3 8 -5 8 -2 -2 9 -11 14 -11 17 0 17 9 0 10 3
4 8 -5 4 -12 16 -13 27 -2 11 -8 22 -12 25 -4 3 -8 17 -8 32 0 16 5 25 11 21
6 -3 7 -1 3 6 -4 6 -11 9 -16 6 -5 -3 -11 -1 -15 5 -3 5 1 10 11 10 12 0 14 4
7 12 -6 7 -9 21 -8 31 2 9 -1 15 -6 11 -5 -3 -9 4 -9 16 0 14 -4 19 -12 14 -8
-5 -7 0 2 11 12 15 12 17 1 10 -11 -6 -13 -4 -8 9 5 13 3 17 -6 13 -8 -3 -14
1 -14 8 0 7 7 11 16 8 12 -3 12 -2 -1 7 -10 6 -18 20 -18 31 0 11 -5 17 -10
14 -6 -4 -9 -1 -8 7 2 7 -3 12 -11 10 -11 -2 -12 0 -3 11 9 10 9 17 -1 27 -10
10 -9 11 3 5 9 -5 8 0 -4 14 -19 21 -19 22 -1 15 17 -7 18 -6 5 8 -8 9 -18 14
-21 12 -3 -2 -6 3 -6 11 0 8 4 15 9 15 5 0 3 6 -4 14 -7 8 -17 11 -23 8 -5 -2
-5 1 2 8 9 10 8 16 -6 29 -9 9 -11 12 -4 7 10 -6 12 -5 8 6 -4 9 -16 21 -28
27 -13 7 -15 10 -4 6 21 -6 13 13 -14 33 -11 7 -16 19 -12 29 4 10 2 14 -4 10
-7 -5 -9 1 -5 15 5 21 4 22 -12 9 -15 -13 -16 -12 -6 13 13 35 13 33 -10 39
-17 4 -19 9 -10 32 7 19 7 24 -1 19 -8 -4 -9 1 -4 16 6 17 4 21 -6 14 -12 -6
-12 -5 0 9 9 12 10 17 2 17 -7 0 -9 5 -6 10 4 6 12 7 18 3 7 -4 6 0 -2 10 -7
9 -17 14 -22 12 -4 -3 -2 7 6 22 10 19 11 31 3 40 -7 9 -7 13 0 13 12 0 11 18
-2 39 -6 10 -5 12 2 7 18 -11 35 41 21 66 -8 15 -8 19 0 14 6 -4 11 -2 11 3 0
6 -4 11 -10 11 -5 0 -10 5 -10 11 0 5 6 7 13 3 9 -6 9 -4 -1 8 -11 14 -10 19
8 36 12 11 23 28 25 38 1 11 8 18 14 17 6 -2 11 2 11 8 0 6 7 9 15 6 8 -4 17
-1 21 5 4 6 3 8 -4 4 -6 -3 -13 -2 -16 3 -4 5 -2 12 3 15 5 4 12 2 16 -3 3 -5
15 -8 27 -6 14 3 30 -5 46 -23 13 -15 21 -22 18 -15 -4 8 3 11 23 11 22 -1 28
-5 24 -17 -4 -12 -2 -11 9 3 14 18 15 18 21 1 5 -10 13 -15 23 -11 8 3 12 2 9
-4 -8 -13 15 -44 35 -48 8 -2 17 -8 18 -13 2 -5 8 -7 13 -3 5 3 9 0 9 -6 0 -6
5 -8 10 -5 6 3 10 -1 10 -9 0 -15 12 -21 34 -17 5 1 3 -6 -5 -15 -12 -16 -12
-17 3 -11 12 4 15 2 11 -9 -3 -7 0 -14 6 -14 6 0 11 -10 11 -23 0 -13 6 -29
13 -36 10 -11 9 -12 -3 -6 -13 8 -13 6 -1 -8 7 -9 10 -24 7 -33 -6 -14 -4 -15
9 -4 13 11 16 11 13 -1 -2 -8 -7 -17 -13 -21 -6 -4 -2 -8 8 -8 9 0 17 -5 17
-11 0 -5 -4 -7 -10 -4 -6 3 -7 -1 -4 -9 3 -9 10 -13 15 -10 5 3 9 -2 9 -11 0
-9 5 -13 10 -10 6 3 10 -1 10 -9 0 -9 7 -16 16 -16 9 0 12 -5 8 -12 -5 -8 -2
-9 9 -5 9 3 19 1 23 -5 4 -7 3 -8 -4 -4 -7 4 -12 2 -12 -3 0 -14 17 -14 26 0
4 8 9 7 15 -2 8 -12 10 -12 18 0 7 11 9 11 14 0 4 -10 6 -8 6 4 1 11 6 15 12
11 6 -3 15 0 20 7 5 8 9 9 9 3 0 -17 52 -8 66 11 9 12 13 13 17 3 4 -9 6 -10
6 -1 1 7 8 10 18 6 10 -4 14 -2 9 5 -3 6 2 13 12 16 13 5 18 15 17 39 -1 17 6
40 14 50 12 15 12 17 -3 17 -9 0 -14 5 -11 10 4 6 10 8 14 6 4 -3 8 4 8 15 2
17 0 18 -13 4 -19 -18 -25 -19 -21 -2 1 6 -4 11 -11 9 -8 -1 -11 2 -7 8 3 5 1
10 -4 10 -6 0 -10 15 -9 33 2 19 -1 31 -8 30 -6 -1 -11 4 -11 12 0 8 4 12 8 9
4 -2 10 0 14 6 3 5 1 10 -6 10 -7 0 -4 7 7 16 10 8 14 13 9 10 -6 -2 -17 4
-24 16 -11 18 -10 19 11 13 18 -5 20 -4 8 4 -8 6 -11 11 -6 11 11 0 -14 30
-26 30 -5 0 -6 -5 -2 -12 5 -7 3 -8 -6 -3 -10 6 -7 13 11 27 l24 18 -27 -4
c-15 -3 -30 -1 -33 4 -3 5 4 7 15 5 14 -3 20 0 17 8 -2 7 -13 11 -23 9 -16 -2
-16 -1 -4 7 8 6 23 8 34 5 12 -4 16 -2 11 5 -4 7 -16 11 -28 9 -17 -2 -22 2
-22 20 0 12 -7 27 -15 33 -13 9 -12 10 3 5 17 -5 23 5 10 18 -10 9 -11 66 -2
72 13 8 -2 35 -15 27 -6 -3 -7 -2 -3 3 5 5 14 9 20 9 14 0 16 23 5 50 -9 19
-9 19 6 1 9 -10 13 -23 10 -27 -3 -5 0 -9 5 -9 11 0 10 35 -2 46 -4 4 -2 13 4
21 9 10 8 17 -2 30 -12 15 -12 16 1 8 22 -14 39 -15 47 -3 3 7 1 8 -5 4 -7 -4
-12 -2 -12 4 0 6 -5 8 -12 4 -9 -5 -8 -2 1 10 11 13 16 14 24 4 6 -9 7 -8 3 6
-5 13 -2 17 8 13 10 -4 13 -1 9 9 -3 8 -2 14 3 12 5 -2 9 1 9 7 0 5 -7 9 -15
7 -13 -3 -13 -2 0 7 14 10 7 15 -13 12 -5 -1 -6 3 -2 9 3 6 10 8 15 5 5 -3 11
-1 15 5 4 6 11 8 16 5 11 -7 29 36 21 49 -3 5 0 6 7 2 7 -4 15 2 20 16 8 20
10 20 10 4 1 -19 1 -19 20 0 14 15 16 22 7 34 -9 13 -9 13 6 2 9 -8 23 -11 30
-7 7 4 2 -2 -11 -13 -15 -12 -20 -22 -13 -26 6 -4 16 3 22 14 6 11 15 18 21
15 5 -4 6 -12 3 -18 -4 -7 -3 -8 1 -4 12 10 15 38 4 31 -16 -10 -10 13 8 27
11 10 14 10 9 2 -4 -8 -2 -13 4 -13 6 0 8 -6 4 -12 -4 -7 2 -5 13 5 11 9 24
14 28 10 5 -5 3 0 -4 10 -14 18 -26 24 -16 7 10 -17 -2 -11 -16 7 -7 10 -9 15
-5 11 5 -4 16 -2 24 5 13 9 14 9 8 0 -4 -7 -4 -13 1 -14 4 0 15 -2 24 -4 17
-3 20 18 4 32 -4 4 -5 3 -1 -4 3 -6 2 -14 -3 -17 -7 -5 -8 8 -2 32 1 1 10 -2
21 -8 11 -6 17 -16 14 -22 -4 -7 -3 -8 4 -4 9 5 9 13 1 29 l-10 22 19 -22 c17
-19 21 -20 26 -7 3 8 10 13 15 10 5 -3 15 2 22 11 10 12 10 14 2 9 -7 -4 -13
-2 -13 3 0 17 21 13 37 -6 10 -13 10 -9 -2 15 -12 24 -12 32 -3 30 7 -2 12 5
12 14 -1 10 3 16 10 15 6 -1 11 10 10 26 0 33 2 33 17 6 9 -17 8 -20 -2 -14
-7 5 -10 4 -6 -2 4 -6 -2 -22 -13 -36 -13 -16 -16 -28 -10 -32 10 -6 11 -5 14
15 0 6 7 14 14 19 8 5 13 12 13 17 -1 5 3 9 8 9 5 0 13 4 18 8 4 5 2 7 -5 5
-8 -2 -18 7 -23 20 -8 21 -2 27 23 23 7 -1 5 19 -3 34 -4 6 -5 18 -4 28 2 9
-1 17 -6 17 -5 0 -9 5 -9 11 0 8 5 8 15 -1 8 -7 13 -15 11 -19 -3 -4 0 -13 5
-21 7 -11 8 -6 3 15 -9 44 -11 156 -2 161 4 3 5 -5 3 -17 -2 -12 -1 -19 3 -15
3 4 7 20 7 36 1 23 -2 27 -13 18 -9 -8 -16 -8 -25 1 -9 10 -8 11 8 5 l20 -7
-20 23 c-11 13 -14 20 -7 16 6 -4 12 -3 12 3 0 5 -5 12 -10 14 -6 3 -5 4 2 3
7 -2 12 -11 12 -20 -2 -19 12 -21 19 -3 5 13 -45 51 -55 42 -2 -2 -5 6 -5 18
-1 12 1 17 5 12 8 -12 53 -15 46 -3 -3 4 -12 8 -20 8 -17 0 -18 11 -1 30 6 8
1 6 -12 -5 -23 -19 -24 -19 -14 -1 12 21 -2 76 -19 76 -5 0 -6 5 -3 10 4 6 10
8 15 5 10 -6 8 15 -3 33 -5 6 -5 12 -2 12 3 0 -1 10 -9 22 -21 29 -20 39 2 32
15 -5 15 -4 2 6 -11 9 -12 13 -2 17 20 8 14 22 -8 18 -11 -2 -22 1 -25 6 -4 5
-12 6 -18 2 -7 -3 -4 2 5 13 19 22 20 31 6 59 -8 19 -8 19 5 2 13 -16 15 -16
21 -2 3 9 2 13 -4 10 -10 -6 -14 7 -11 33 1 6 -3 12 -9 12 -5 0 -10 7 -10 16
0 14 1 14 16 0 19 -20 31 -21 15 -2 -6 8 -10 20 -9 27 2 9 -6 14 -19 13 -12 0
-20 3 -17 8 3 4 14 8 24 8 10 0 21 4 25 10 3 5 -6 8 -23 6 -25 -4 -28 -1 -27
24 0 16 5 33 9 37 5 5 6 2 1 -6 -5 -10 -4 -12 4 -7 6 4 9 12 6 17 -4 5 0 9 7
9 10 0 10 2 -1 9 -8 5 -11 16 -8 24 4 10 -1 13 -17 12 -19 -2 -22 2 -21 29 1
17 -4 41 -12 53 -14 23 -2 40 19 27 7 -5 8 -3 3 5 -4 8 -17 10 -34 7 -19 -5
-22 -4 -11 4 13 9 13 10 0 10 -11 0 -12 2 -2 8 6 5 11 20 10 35 -3 29 -8 33
-24 17 -6 -6 -15 -5 -24 1 -13 9 -13 10 2 6 21 -7 32 29 11 37 -8 3 -11 2 -8
-3 3 -5 1 -13 -5 -16 -6 -4 -10 -3 -9 2 1 4 0 10 -1 13 -7 19 -7 41 0 45 5 3
7 -4 5 -15 -2 -11 0 -18 5 -15 17 11 -5 62 -31 70 -10 4 -19 11 -19 16 0 6 4
8 9 4 5 -3 13 0 17 7 4 7 3 10 -1 5 -5 -4 -17 1 -28 10 -19 17 -20 17 -14 1 4
-12 2 -15 -9 -11 -13 5 -13 8 -1 22 13 14 14 35 5 99 -1 6 -5 12 -8 12 -4 0
-13 14 -20 30 -10 24 -17 29 -34 25 -21 -6 -21 -6 -1 7 25 16 30 38 9 38 -8 0
-13 -4 -10 -8 3 -5 -1 -9 -9 -9 -10 0 -12 4 -5 12 7 9 5 16 -5 25 -13 11 -13
15 -3 21 10 7 10 9 -1 9 -9 0 -5 8 10 21 24 21 24 21 2 15 -27 -9 -30 1 -5 21
9 8 12 12 5 8 -7 -3 -17 3 -23 14 -6 11 -16 19 -23 17 -6 -1 -9 -1 -4 1 4 3 5
8 3 12 -3 4 1 8 9 8 8 0 15 -5 15 -10 0 -6 3 -7 6 -4 10 10 -16 36 -30 31 -8
-3 -16 1 -19 9 -4 11 0 14 16 11 19 -4 19 -3 -2 6 -28 12 -56 48 -56 72 0 9
-4 20 -9 25 -5 5 -6 2 -1 -6 6 -10 4 -12 -5 -6 -10 6 -10 11 3 20 10 7 17 16
17 21 0 4 -5 3 -12 -4 -20 -20 -31 -13 -24 16 l7 27 -16 -22 c-9 -13 -22 -23
-28 -23 -8 0 -7 4 2 9 24 15 21 41 -5 53 -18 9 -21 14 -13 25 6 7 8 13 3 13
-4 0 0 6 10 13 17 12 17 14 -1 28 -16 12 -17 12 -7 -1 8 -11 5 -20 -11 -37
-19 -20 -21 -20 -21 -3 0 10 4 16 8 14 4 -3 8 4 8 15 0 12 -4 21 -9 21 -15 0
-23 32 -11 44 8 8 9 6 5 -5 -4 -10 0 -19 11 -23 13 -5 14 -3 7 6 -6 7 -9 20
-8 29 2 12 -3 15 -16 12 -13 -4 -19 0 -19 11 0 10 4 15 9 11 5 -3 13 -1 16 5
4 6 3 10 -2 9 -4 -2 -20 4 -35 11 -23 11 -26 16 -15 28 9 13 9 14 0 8 -8 -4
-13 -2 -13 4 0 6 -4 9 -8 6 -4 -2 -14 -1 -21 3 -10 6 -9 10 4 14 10 5 14 3 9
-5 -4 -7 -3 -8 5 -4 16 10 4 26 -14 19 -11 -4 -13 -1 -8 13 5 13 3 15 -7 9
-10 -6 -12 -4 -6 10 5 15 4 16 -8 6 -12 -10 -17 -8 -26 9 -6 11 -15 18 -20 15
-6 -3 -7 1 -3 11 6 16 7 15 20 -2 7 -10 13 -22 13 -26 0 -5 6 -3 14 4 12 11
11 15 -8 25 -11 6 -20 14 -18 17 6 14 1 16 -19 5 -14 -7 -24 -8 -31 -1 -7 7
-4 10 7 9 10 -1 20 5 22 13 4 13 3 13 -6 0 -8 -11 -11 -12 -11 -2 0 9 -7 11
-21 7 -16 -6 -20 -4 -13 6 11 19 13 49 2 43 -5 -4 -7 -12 -4 -19 2 -7 -1 -16
-9 -19 -10 -3 -12 0 -8 12 5 13 4 15 -8 7 -13 -9 -32 -11 -51 -5 -5 1 -14 3
-20 4 -7 0 -14 9 -16 20 -3 13 0 16 9 11 8 -5 10 -4 5 4 -9 14 -26 5 -26 -15
0 -8 -5 -14 -11 -14 -5 0 -7 5 -4 10 4 6 3 10 -2 9 -20 -3 -27 2 -13 11 9 6
10 10 3 10 -6 0 -15 -4 -18 -10 -4 -6 -15 -4 -30 6 -16 10 -25 12 -30 4 -3 -6
-11 -8 -16 -4 -5 3 -17 0 -25 -7 -13 -11 -15 -10 -12 6 1 10 -3 19 -10 21 -7
1 -8 0 -2 -3 15 -7 2 -23 -15 -17 -8 4 -12 11 -8 18 4 6 0 5 -9 -2 -14 -11
-17 -10 -21 3 -4 12 -5 11 -3 -2 1 -10 6 -18 13 -18 6 0 14 -3 17 -6 6 -5 -41
-4 -54 1 -3 1 -9 2 -13 1 -5 -1 -6 3 -2 9 3 6 11 8 16 5 5 -4 9 -1 9 4 0 15
-23 14 -39 -1 -11 -10 -13 -10 -7 0 4 6 2 12 -5 12 -8 0 -7 5 2 18 13 15 12
16 -3 4 -9 -8 -14 -21 -11 -30 4 -15 3 -15 -6 -2 -10 14 -16 7 -12 -14 1 -5
-5 -4 -13 3 -8 7 -21 10 -28 6 -7 -4 -4 0 6 9 10 8 23 13 27 10 5 -3 9 0 9 5
0 14 -11 14 -45 1 -19 -7 -24 -7 -19 2 5 8 2 9 -10 5 -14 -5 -15 -3 -6 13 13
24 13 41 -1 18 -5 -9 -16 -15 -24 -12 -8 4 -12 10 -9 15 3 6 -6 8 -20 5 -14
-3 -28 -1 -31 4 -3 5 4 7 16 5 12 -2 18 -1 15 3 -7 7 -11 8 -37 11 -5 0 -7 6
-3 13 4 6 3 8 -4 5 -5 -4 -8 -17 -6 -30 4 -22 4 -22 -6 1 -5 13 -8 27 -6 31 6
10 -117 7 -133 -3 -9 -6 -12 -5 -8 1 4 6 -74 10 -223 10 -172 1 -228 -2 -223
-10 4 -8 1 -7 -9 1 -13 10 -17 10 -22 -3 -3 -9 -10 -14 -15 -10 -5 3 -12 1
-16 -5 -4 -6 -10 -8 -15 -5 -4 2 -13 -9 -20 -25 -7 -17 -15 -29 -17 -26 -9 9
28 66 39 60 7 -4 8 -3 4 4 -4 7 1 10 14 7 11 -2 20 0 20 4 0 5 -13 8 -29 7
-16 0 -29 -5 -28 -11z m597 -5 c0 -5 -2 -10 -4 -10 -3 0 -8 5 -11 10 -3 6 -1
10 4 10 6 0 11 -4 11 -10z m44 2 c3 -5 -1 -9 -9 -9 -8 0 -12 4 -9 9 3 4 7 8 9
8 2 0 6 -4 9 -8z m36 -47 c0 -5 -5 -3 -10 5 -5 8 -10 20 -10 25 0 6 5 3 10 -5
5 -8 10 -19 10 -25z m-833 -17 c-3 -8 -6 -5 -6 6 -1 11 2 17 5 13 3 -3 4 -12
1 -19z m41 1 c3 -12 2 -12 -6 0 -8 11 -10 11 -15 0 -4 -10 -6 -8 -6 4 -1 21
21 18 27 -4z m-183 -39 c3 -6 -1 -7 -9 -4 -18 7 -21 14 -7 14 6 0 13 -4 16
-10z m1449 -33 c4 4 4 -1 0 -11 -5 -13 -4 -17 4 -12 6 3 13 2 16 -3 10 -16
-20 -6 -38 12 -23 23 -43 22 -25 0 13 -16 12 -17 -3 -5 -9 8 -14 20 -11 27 4
12 8 12 27 0 13 -8 26 -12 30 -8z m-77 -2 c0 -8 -4 -12 -9 -9 -5 3 -6 10 -3
15 9 13 12 11 12 -6z m155 -40 c3 0 9 -3 13 -7 4 -3 0 -5 -9 -4 -9 1 -22 8
-29 16 -10 10 -9 11 3 4 8 -5 18 -9 22 -9z m-1646 -161 c-9 -8 -13 -20 -10
-26 4 -6 10 -5 15 3 5 8 9 9 9 3 0 -19 -12 -24 -32 -13 -19 10 -19 12 -2 30 9
10 21 19 26 19 5 0 2 -7 -6 -16z m1934 -58 c0 -3 -4 -8 -10 -11 -5 -3 -10 -1
-10 4 0 6 5 11 10 11 6 0 10 -2 10 -4z m-2032 -191 c-3 -3 -9 2 -12 12 -6 14
-5 15 5 6 7 -7 10 -15 7 -18z m-56 -62 c-9 -4 -10 -9 -2 -18 8 -9 7 -14 -4
-18 -11 -4 -13 -1 -9 11 6 15 5 16 -13 2 -19 -14 -19 -14 0 8 11 12 24 22 30
21 6 0 5 -3 -2 -6z m2183 -13 c3 -5 1 -10 -4 -10 -6 0 -11 5 -11 10 0 6 2 10
4 10 3 0 8 -4 11 -10z m118 -193 c3 -8 2 -20 -3 -26 -5 -9 -7 -4 -7 13 0 29 2
32 10 13z m-2398 -16 c3 -5 2 -12 -3 -15 -5 -3 -9 1 -9 9 0 17 3 19 12 6z m2
-79 c0 -10 -9 -19 -18 -19 -17 -2 -17 -1 -1 17 22 23 21 23 19 2z m-37 -92 c0
-5 -5 -10 -11 -10 -5 0 -7 5 -4 10 3 6 8 10 11 10 2 0 4 -4 4 -10z m2510 -20
c0 -6 0 -13 -1 -16 0 -4 5 -10 11 -14 9 -5 9 -9 1 -14 -6 -4 -11 -4 -12 1 -3
30 -10 47 -26 59 -17 14 -16 14 5 4 12 -6 22 -15 22 -20z m-2530 -40 c0 -4 -7
-11 -16 -14 -13 -5 -14 -4 -6 7 7 8 8 18 4 22 -4 5 -1 5 6 1 6 -4 12 -11 12
-16z m2557 -24 c0 -8 -6 -12 -15 -9 -11 5 -11 7 0 14 7 5 13 9 14 9 0 0 1 -6
1 -14z m53 -131 c10 -12 9 -15 -4 -15 -10 0 -15 4 -12 9 4 5 0 12 -6 14 -8 4
-9 6 -2 6 6 1 17 -6 24 -14z m57 -137 c-3 -8 -6 -5 -6 6 -1 11 2 17 5 13 3 -3
4 -12 1 -19z m67 -194 c3 -8 2 -12 -4 -9 -6 3 -10 1 -10 -4 0 -6 -5 -11 -11
-11 -8 0 -9 4 0 13 6 8 8 17 4 20 -3 4 -2 7 4 7 6 0 14 -7 17 -16z m-2874 -92
c0 -4 -10 -9 -22 -9 -18 -2 -20 0 -8 7 18 12 30 13 30 2z m2880 -102 c0 -5 -2
-10 -4 -10 -3 0 -8 5 -11 10 -3 6 -1 10 4 10 6 0 11 -4 11 -10z m-2912 -104
c-7 -8 -17 -12 -22 -9 -4 3 -2 9 5 14 22 13 31 11 17 -5z m2946 -31 c-4 -8
-11 -12 -16 -9 -6 4 -5 10 3 15 19 12 19 11 13 -6z m-2955 -27 c-10 -18 -9
-20 7 -14 15 5 16 4 7 -5 -17 -17 -35 -2 -23 20 5 10 6 22 2 26 -4 5 -1 5 6 1
9 -5 9 -12 1 -28z m2959 -31 c8 -10 6 -13 -11 -14 -12 0 -16 1 -9 4 6 3 10 9
6 14 -8 14 2 11 14 -4z m11 -36 c7 -5 9 -11 5 -14 -5 -3 -15 1 -22 9 -14 16
-5 18 17 5z m-2945 -29 c2 -4 -4 -8 -14 -8 -10 0 -16 4 -14 8 3 4 9 8 14 8 5
0 11 -4 14 -8z m2956 -43 c0 -5 -4 -9 -8 -9 -5 0 -9 7 -9 15 0 8 4 12 9 9 4
-3 8 -9 8 -15z m10 -25 c0 -8 -19 -13 -24 -6 -3 5 1 9 9 9 8 0 15 -2 15 -3z
m-2970 -74 c0 -5 -7 -7 -15 -4 -8 4 -15 8 -15 10 0 2 7 4 15 4 8 0 15 -4 15
-10z m-3 -165 c0 -8 -4 -12 -9 -9 -4 3 -8 9 -8 15 0 5 4 9 8 9 5 0 9 -7 9 -15z
m2980 -110 c0 -8 -4 -12 -9 -9 -5 3 -6 10 -3 15 9 13 12 11 12 -6z m20 -31
c-3 -3 -12 -4 -19 -1 -8 3 -5 6 6 6 11 1 17 -2 13 -5z m-2962 -62 c-3 -3 -11
0 -18 7 -9 10 -8 11 6 5 10 -3 15 -9 12 -12z m2819 -94 c-5 -8 -2 -9 9 -5 9 3
19 1 23 -5 4 -6 3 -8 -4 -4 -6 3 -14 1 -18 -5 -5 -8 -9 -7 -15 2 -7 12 -3 29
7 29 3 0 2 -5 -2 -12z m-2674 -39 c0 -4 -9 -7 -19 -6 -11 0 -18 4 -16 7 6 9
35 8 35 -1z m2515 -39 c-3 -5 -12 -10 -18 -10 -7 0 -6 4 3 10 19 12 23 12 15
0z m-2381 -86 c9 -24 2 -26 -12 -4 -7 11 -8 20 -3 20 5 0 12 -7 15 -16z m2202
-96 c4 -7 4 -10 -1 -6 -4 4 -14 0 -22 -10 -13 -15 -13 -15 -3 6 12 25 16 27
26 10z m-2016 -292 c0 -2 -7 -7 -16 -10 -8 -3 -12 -2 -9 4 6 10 25 14 25 6z
m20 -246 c0 -5 -2 -10 -4 -10 -3 0 -8 5 -11 10 -3 6 -1 10 4 10 6 0 11 -4 11
-10z m0 -104 c0 -2 -7 -7 -16 -10 -8 -3 -12 -2 -9 4 6 10 25 14 25 6z m-25
-336 c-3 -5 -11 -10 -16 -10 -6 0 -7 5 -4 10 3 6 11 10 16 10 6 0 7 -4 4 -10z
m-34 -114 c-6 -7 -7 -17 -3 -21 4 -5 1 -5 -5 -1 -7 4 -13 2 -13 -3 0 -6 5 -11
10 -11 6 0 10 -5 10 -11 0 -8 -4 -8 -15 1 -22 18 -7 78 16 64 6 -4 6 -10 0
-18z m1493 -533 c3 -12 -1 -20 -10 -20 -9 0 -11 4 -5 10 5 5 7 17 4 26 -4 9
-3 13 1 10 4 -4 8 -15 10 -26z m-925 -84 c-7 -4 -16 -5 -19 -2 -3 3 0 8 7 10
7 2 10 12 7 21 -4 13 -3 13 6 -2 10 -14 10 -20 -1 -27z m-38 -7 c-18 -33 -62
-40 -60 -9 0 9 2 9 6 0 9 -23 25 -14 18 10 -7 21 -6 21 7 3 14 -18 15 -18 21
5 3 13 9 20 12 17 4 -3 2 -15 -4 -26z m139 19 c0 -5 -9 -7 -20 -4 -11 3 -20 7
-20 9 0 2 9 4 20 4 11 0 20 -4 20 -9z m48 -16 c-3 -3 -9 2 -12 12 -6 14 -5 15
5 6 7 -7 10 -15 7 -18z m222 -39 c0 -3 -4 -8 -10 -11 -5 -3 -10 -1 -10 4 0 6
5 11 10 11 6 0 10 -2 10 -4z m-1246 -52 c3 -8 2 -12 -4 -9 -6 3 -10 10 -10 16
0 14 7 11 14 -7z m-14 -26 c0 -6 -6 -5 -15 2 -8 7 -15 14 -15 16 0 2 7 1 15
-2 8 -4 15 -11 15 -16z m1344 -13 c-4 -8 -11 -15 -16 -15 -6 0 -5 6 2 15 7 8
14 15 16 15 2 0 1 -7 -2 -15z m541 -16 c-4 -5 -12 -9 -18 -8 -8 0 -8 2 1 6 10
4 9 9 -5 20 -17 13 -16 13 5 3 12 -6 20 -15 17 -21z m-1152 -14 c-3 -9 -8 -14
-10 -11 -3 3 -2 9 2 15 9 16 15 13 8 -4z m1047 -106 c0 -11 -29 -19 -34 -10
-3 5 -3 10 -1 13 8 7 35 5 35 -3z m-1297 -194 c-10 -7 -20 -12 -21 -10 -7 7
23 33 31 28 5 -3 0 -11 -10 -18z m-385 -10 c-3 -3 -9 2 -12 12 -6 14 -5 15 5
6 7 -7 10 -15 7 -18z"/>
<path d="M1940 5083 c0 -1 8 -7 18 -12 13 -7 19 -6 19 2 0 7 -9 13 -19 13 -10
0 -18 -1 -18 -3z"/>
<path d="M1720 5070 c-9 -6 -10 -10 -3 -10 6 0 15 5 18 10 8 12 4 12 -15 0z"/>
<path d="M2830 5040 c0 -5 5 -10 11 -10 5 0 7 5 4 10 -3 6 -8 10 -11 10 -2 0
-4 -4 -4 -10z"/>
<path d="M1669 4985 c-1 -3 -2 -11 -3 -17 -1 -7 -8 -12 -15 -10 -7 1 -10 -2
-6 -8 5 -8 11 -8 21 1 7 6 12 15 9 19 -3 5 1 11 7 13 10 4 10 6 1 6 -7 1 -14
-1 -14 -4z"/>
<path d="M3250 4960 c0 -5 5 -10 10 -10 6 0 10 5 10 10 0 6 -4 10 -10 10 -5 0
-10 -4 -10 -10z"/>
<path d="M3684 4381 c20 -22 26 -25 26 -13 0 4 -10 13 -22 21 -23 14 -23 14
-4 -8z"/>
<path d="M3772 4158 c2 -6 11 -12 20 -14 11 -1 15 3 11 12 -6 17 -36 19 -31 2z"/>
<path d="M3864 3933 c2 -9 11 -17 20 -19 17 -2 17 -2 0 17 -21 23 -23 23 -20
2z"/>
<path d="M1235 3911 c-6 -11 9 -23 19 -14 9 9 7 23 -3 23 -6 0 -12 -4 -16 -9z"/>
<path d="M3910 3880 c0 -5 5 -10 11 -10 5 0 7 5 4 10 -3 6 -8 10 -11 10 -2 0
-4 -4 -4 -10z"/>
<path d="M1230 3849 c0 -5 -4 -8 -8 -5 -4 2 -9 -5 -9 -16 -1 -11 -1 -19 0 -17
1 2 11 14 21 27 11 12 14 22 8 22 -7 0 -12 -5 -12 -11z"/>
<path d="M4005 3592 c0 -15 4 -28 8 -29 16 -6 19 -2 8 11 -9 11 -9 15 0 18 8
3 7 7 -3 15 -11 10 -14 7 -13 -15z"/>
<path d="M1164 3601 c4 -5 1 -11 -6 -13 -8 -3 -7 -6 3 -10 10 -4 15 1 16 13 1
10 -3 19 -8 19 -6 0 -8 -4 -5 -9z"/>
<path d="M4026 3461 c-4 -6 -2 -11 4 -11 6 0 8 -6 4 -12 -6 -10 -4 -10 7 0 9
9 10 15 2 23 -8 8 -13 8 -17 0z"/>
<path d="M1090 3376 c0 -2 7 -7 16 -10 8 -3 12 -2 9 4 -6 10 -25 14 -25 6z"/>
<path d="M1073 3285 c0 -7 6 -11 14 -8 7 3 13 6 13 8 0 2 -6 5 -13 8 -8 3 -14
-1 -14 -8z"/>
<path d="M4058 3248 c5 -5 16 -8 23 -6 8 3 3 7 -10 11 -17 4 -21 3 -13 -5z"/>
<path d="M4045 3220 c4 -6 11 -8 16 -5 14 9 11 15 -7 15 -8 0 -12 -5 -9 -10z"/>
<path d="M1060 2966 c0 -2 8 -10 18 -17 15 -13 16 -12 3 4 -13 16 -21 21 -21
13z"/>
<path d="M1075 2900 c-3 -5 -1 -10 4 -10 6 0 11 5 11 10 0 6 -2 10 -4 10 -3 0
-8 -4 -11 -10z"/>
<path d="M1075 2860 c3 -5 8 -10 11 -10 2 0 4 5 4 10 0 6 -5 10 -11 10 -5 0
-7 -4 -4 -10z"/>
<path d="M1096 2834 c-9 -23 -2 -28 13 -10 7 8 8 17 3 20 -6 3 -13 -1 -16 -10z"/>
<path d="M4151 2762 c-7 -13 -6 -19 2 -19 7 0 13 9 13 19 0 10 -1 18 -3 18 -1
0 -7 -8 -12 -18z"/>
<path d="M4147 2699 c7 -7 15 -10 18 -7 3 3 -2 9 -12 12 -14 6 -15 5 -6 -5z"/>
<path d="M1090 2671 c-8 -6 -19 -7 -25 -4 -5 4 -6 2 -2 -2 13 -15 35 -14 41 1
6 16 6 17 -14 5z"/>
<path d="M1190 2461 c0 -6 4 -11 9 -11 5 0 12 -8 14 -17 4 -17 5 -17 6 0 1 15
4 16 24 6 17 -9 19 -9 11 0 -6 7 -18 13 -25 14 -8 2 -20 6 -26 10 -8 5 -13 4
-13 -2z"/>
<path d="M1230 2420 c0 -5 5 -10 11 -10 5 0 7 5 4 10 -3 6 -8 10 -11 10 -2 0
-4 -4 -4 -10z"/>
<path d="M3731 2297 c-11 -14 -6 -27 10 -27 5 0 5 7 2 17 -5 12 -3 14 7 8 9
-5 11 -4 6 3 -9 15 -11 15 -25 -1z"/>
<path d="M3676 2241 c-3 -5 1 -11 9 -14 9 -4 12 -1 8 9 -6 16 -10 17 -17 5z"/>
<path d="M1478 2198 c9 -9 9 -15 -1 -27 -8 -10 -8 -13 0 -8 6 4 14 1 17 -5 2
-7 3 -2 1 12 -2 14 -4 28 -4 33 -1 4 -6 7 -13 7 -9 0 -9 -3 0 -12z"/>
<path d="M1474 2131 c0 -11 3 -18 7 -15 4 2 9 -2 12 -8 2 -7 7 -11 10 -8 3 3
-2 16 -12 28 -16 21 -17 22 -17 3z"/>
<path d="M3610 2095 c-11 -13 -10 -14 4 -9 9 3 16 10 16 15 0 13 -6 11 -20 -6z"/>
<path d="M3585 2010 c-8 -13 3 -30 18 -29 9 0 9 2 0 6 -7 2 -13 9 -13 14 0 6
5 7 12 3 7 -4 8 -3 4 4 -9 15 -13 15 -21 2z"/>
<path d="M1553 1955 c0 -7 6 -11 14 -8 7 3 13 6 13 8 0 2 -6 5 -13 8 -8 3 -14
-1 -14 -8z"/>
<path d="M3573 1956 c0 -8 8 -11 20 -8 14 4 16 7 5 13 -19 12 -25 11 -25 -5z"/>
<path d="M3581 1926 c-7 -8 -8 -17 -3 -20 6 -3 15 1 21 8 7 8 8 17 3 20 -6 3
-15 -1 -21 -8z"/>
<path d="M3589 1888 c-6 -16 -4 -56 3 -52 4 3 6 10 3 15 -4 5 0 9 7 9 10 0 10
2 -1 9 -11 7 -11 9 0 14 10 4 10 6 2 6 -7 1 -13 0 -14 -1z"/>
<path d="M1259 1828 c-5 -18 -6 -38 -1 -34 7 8 12 36 6 36 -2 0 -4 -1 -5 -2z"/>
<path d="M1609 1771 c11 -7 10 -13 -3 -33 -13 -20 -14 -25 -2 -25 8 0 12 6 9
14 -3 8 -2 13 3 12 20 -3 24 2 14 21 -6 11 -16 20 -23 20 -8 0 -8 -3 2 -9z"/>
<path d="M1246 1762 c-3 -5 1 -9 9 -9 8 0 12 4 9 9 -3 4 -7 8 -9 8 -2 0 -6 -4
-9 -8z"/>
<path d="M1596 1583 c-6 -14 -5 -15 5 -6 7 7 10 15 7 18 -3 3 -9 -2 -12 -12z"/>
<path d="M3657 1550 c10 -11 19 -20 21 -20 1 0 -2 9 -8 20 -6 11 -15 20 -20
20 -6 0 -2 -9 7 -20z"/>
<path d="M1615 1510 c-3 -5 -3 -10 2 -10 4 0 1 -5 -7 -11 -12 -8 -12 -10 -1
-7 8 2 15 12 17 21 3 19 -2 22 -11 7z"/>
<path d="M3689 1468 c-6 -19 -3 -45 5 -45 6 0 12 11 12 24 1 13 -2 23 -7 23
-5 0 -9 -1 -10 -2z"/>
<path d="M1605 1430 c-16 -7 -17 -9 -3 -9 9 -1 20 4 23 9 7 11 7 11 -20 0z"/>
<path d="M1602 1385 c-17 -37 -14 -45 4 -12 9 16 14 31 11 33 -2 2 -9 -7 -15
-21z"/>
<path d="M1609 1346 c-3 -29 -6 -56 -9 -61 -1 -3 -3 -9 -4 -14 0 -5 -4 -13 -8
-17 -5 -4 -8 -11 -8 -16 0 -5 7 -2 16 6 8 9 13 20 9 25 -3 5 -1 12 4 15 5 4 8
14 6 24 -1 9 2 22 7 29 5 7 5 14 -2 18 -5 3 -11 -1 -11 -9z"/>
<path d="M2885 1181 c-3 -5 -2 -12 3 -15 5 -3 9 1 9 9 0 17 -3 19 -12 6z"/>
<path d="M1555 1169 c-4 -6 -5 -12 -2 -15 2 -3 7 2 10 11 7 17 1 20 -8 4z"/>
<path d="M3715 1001 c-3 -5 -2 -12 3 -15 5 -3 9 1 9 9 0 17 -3 19 -12 6z"/>
<path d="M1487 979 c7 -7 15 -10 18 -7 3 3 -2 9 -12 12 -14 6 -15 5 -6 -5z"/>
<path d="M3315 861 c-3 -5 -2 -12 3 -15 5 -3 9 1 9 9 0 17 -3 19 -12 6z"/>
<path d="M1490 846 c0 -8 4 -17 8 -20 4 -2 8 4 8 15 0 10 -4 19 -8 19 -4 0 -8
-6 -8 -14z"/>
<path d="M1447 703 c5 -12 3 -14 -7 -8 -9 6 -11 4 -5 -5 6 -10 4 -12 -8 -7
-25 9 -21 0 6 -14 12 -6 19 -8 14 -4 -4 5 0 16 8 25 14 15 14 18 1 23 -11 4
-13 1 -9 -10z"/>
<path d="M1395 609 c-4 -6 -4 -13 -1 -16 3 -3 1 -12 -5 -19 -7 -8 -7 -14 1
-19 12 -7 12 -8 14 33 2 35 1 38 -9 21z"/>
<path d="M3084 486 c3 -17 78 -118 83 -112 3 3 -2 12 -10 21 -9 8 -19 24 -22
35 -3 11 -11 20 -16 20 -6 0 -7 5 -3 12 4 7 3 8 -4 4 -7 -4 -12 -3 -12 3 0 5
6 11 12 13 7 3 3 7 -9 10 -12 3 -20 1 -19 -6z"/>
<path d="M3130 280 c0 -5 5 -10 10 -10 6 0 10 5 10 10 0 6 -4 10 -10 10 -5 0
-10 -4 -10 -10z"/>
<path d="M3095 220 c-3 -5 -1 -10 4 -10 6 0 11 5 11 10 0 6 -2 10 -4 10 -3 0
-8 -4 -11 -10z"/>
<path d="M1936 205 c4 -8 8 -15 10 -15 2 0 4 7 4 15 0 8 -4 15 -10 15 -5 0 -7
-7 -4 -15z"/>
<path d="M1256 82 c-3 -5 1 -9 9 -9 8 0 12 4 9 9 -3 4 -7 8 -9 8 -2 0 -6 -4
-9 -8z"/>
<path d="M1261 44 c0 -11 3 -14 6 -6 3 7 2 16 -1 19 -3 4 -6 -2 -5 -13z"/>
</g>
</svg>
